<svg xmlns="http://www.w3.org/2000/svg" xmlns:xlink="http://www.w3.org/1999/xlink" contentStyleType="text/css" data-diagram-type="CLASS" height="1177px" preserveAspectRatio="none" style="width:1059px;height:1177px;background:#FFFFFF;" version="1.1" viewBox="0 0 1059 1177" width="1059px" zoomAndPan="magnify"><defs/><g><!--class UserRole--><g class="entity" data-entity="UserRole" data-source-line="5" data-uid="ent0002" id="entity_UserRole"><rect fill="#F1F1F1" height="80.5938" rx="2.5" ry="2.5" style="stroke:#181818;stroke-width:0.5;" width="94.7061" x="7" y="238"/><ellipse cx="22" cy="254" fill="#EB937F" rx="11" ry="11" style="stroke:#181818;stroke-width:1;"/><path d="M26.1094,260 L18.3906,260 L18.3906,247.6094 L26.1094,247.6094 L26.1094,249.7656 L20.8438,249.7656 L20.8438,252.4375 L25.6094,252.4375 L25.6094,254.5938 L20.8438,254.5938 L20.8438,257.8438 L26.1094,257.8438 L26.1094,260 Z " fill="#000000"/><text fill="#000000" font-family="sans-serif" font-size="14" lengthAdjust="spacing" textLength="62.7061" x="36" y="258.8467">UserRole</text><line style="stroke:#181818;stroke-width:0.5;" x1="8" x2="100.7061" y1="270" y2="270"/><text fill="#000000" font-family="sans-serif" font-size="14" lengthAdjust="spacing" textLength="47.0381" x="13" y="286.9951">ADMIN</text><text fill="#000000" font-family="sans-serif" font-size="14" lengthAdjust="spacing" textLength="49.5742" x="13" y="303.292">CLIENT</text><line style="stroke:#181818;stroke-width:0.5;" x1="8" x2="100.7061" y1="310.5938" y2="310.5938"/></g><!--class NiveauClient--><g class="entity" data-entity="NiveauClient" data-source-line="10" data-uid="ent0003" id="entity_NiveauClient"><rect fill="#F1F1F1" height="113.1875" rx="2.5" ry="2.5" style="stroke:#181818;stroke-width:0.5;" width="121.2432" x="199" y="501.5"/><ellipse cx="214" cy="517.5" fill="#EB937F" rx="11" ry="11" style="stroke:#181818;stroke-width:1;"/><path d="M218.1094,523.5 L210.3906,523.5 L210.3906,511.1094 L218.1094,511.1094 L218.1094,513.2656 L212.8438,513.2656 L212.8438,515.9375 L217.6094,515.9375 L217.6094,518.0938 L212.8438,518.0938 L212.8438,521.3438 L218.1094,521.3438 L218.1094,523.5 Z " fill="#000000"/><text fill="#000000" font-family="sans-serif" font-size="14" lengthAdjust="spacing" textLength="89.2432" x="228" y="522.3467">NiveauClient</text><line style="stroke:#181818;stroke-width:0.5;" x1="200" x2="319.2432" y1="533.5" y2="533.5"/><text fill="#000000" font-family="sans-serif" font-size="14" lengthAdjust="spacing" textLength="41.9727" x="205" y="550.4951">BASIC</text><text fill="#000000" font-family="sans-serif" font-size="14" lengthAdjust="spacing" textLength="48.9658" x="205" y="566.792">SILVER</text><text fill="#000000" font-family="sans-serif" font-size="14" lengthAdjust="spacing" textLength="40.4482" x="205" y="583.0889">GOLD</text><text fill="#000000" font-family="sans-serif" font-size="14" lengthAdjust="spacing" textLength="71.2988" x="205" y="599.3857">PLATINUM</text><line style="stroke:#181818;stroke-width:0.5;" x1="200" x2="319.2432" y1="606.6875" y2="606.6875"/></g><!--class StatutCommande--><g class="entity" data-entity="StatutCommande" data-source-line="17" data-uid="ent0004" id="entity_StatutCommande"><rect fill="#F1F1F1" height="113.1875" rx="2.5" ry="2.5" style="stroke:#181818;stroke-width:0.5;" width="155.375" x="897" y="836.5"/><ellipse cx="912" cy="852.5" fill="#EB937F" rx="11" ry="11" style="stroke:#181818;stroke-width:1;"/><path d="M916.1094,858.5 L908.3906,858.5 L908.3906,846.1094 L916.1094,846.1094 L916.1094,848.2656 L910.8438,848.2656 L910.8438,850.9375 L915.6094,850.9375 L915.6094,853.0938 L910.8438,853.0938 L910.8438,856.3438 L916.1094,856.3438 L916.1094,858.5 Z " fill="#000000"/><text fill="#000000" font-family="sans-serif" font-size="14" lengthAdjust="spacing" textLength="123.375" x="926" y="857.3467">StatutCommande</text><line style="stroke:#181818;stroke-width:0.5;" x1="898" x2="1051.375" y1="868.5" y2="868.5"/><text fill="#000000" font-family="sans-serif" font-size="14" lengthAdjust="spacing" textLength="63.9912" x="903" y="885.4951">PENDING</text><text fill="#000000" font-family="sans-serif" font-size="14" lengthAdjust="spacing" textLength="84.8818" x="903" y="901.792">CONFIRMED</text><text fill="#000000" font-family="sans-serif" font-size="14" lengthAdjust="spacing" textLength="75.8721" x="903" y="918.0889">CANCELED</text><text fill="#000000" font-family="sans-serif" font-size="14" lengthAdjust="spacing" textLength="69.501" x="903" y="934.3857">REJECTED</text><line style="stroke:#181818;stroke-width:0.5;" x1="898" x2="1051.375" y1="941.6875" y2="941.6875"/></g><!--class StatutPaiement--><g class="entity" data-entity="StatutPaiement" data-source-line="24" data-uid="ent0005" id="entity_StatutPaiement"><rect fill="#F1F1F1" height="96.8906" rx="2.5" ry="2.5" style="stroke:#181818;stroke-width:0.5;" width="140.9443" x="583" y="1074"/><ellipse cx="598" cy="1090" fill="#EB937F" rx="11" ry="11" style="stroke:#181818;stroke-width:1;"/><path d="M602.1094,1096 L594.3906,1096 L594.3906,1083.6094 L602.1094,1083.6094 L602.1094,1085.7656 L596.8438,1085.7656 L596.8438,1088.4375 L601.6094,1088.4375 L601.6094,1090.5938 L596.8438,1090.5938 L596.8438,1093.8438 L602.1094,1093.8438 L602.1094,1096 Z " fill="#000000"/><text fill="#000000" font-family="sans-serif" font-size="14" lengthAdjust="spacing" textLength="108.9443" x="612" y="1094.8467">StatutPaiement</text><line style="stroke:#181818;stroke-width:0.5;" x1="584" x2="722.9443" y1="1106" y2="1106"/><text fill="#000000" font-family="sans-serif" font-size="14" lengthAdjust="spacing" textLength="89.7148" x="589" y="1122.9951">EN_ATTENTE</text><text fill="#000000" font-family="sans-serif" font-size="14" lengthAdjust="spacing" textLength="69.4189" x="589" y="1139.292">ENCAISSE</text><text fill="#000000" font-family="sans-serif" font-size="14" lengthAdjust="spacing" textLength="48.9453" x="589" y="1155.5889">REJETE</text><line style="stroke:#181818;stroke-width:0.5;" x1="584" x2="722.9443" y1="1162.8906" y2="1162.8906"/></g><!--class TypePaiement--><g class="entity" data-entity="TypePaiement" data-source-line="30" data-uid="ent0006" id="entity_TypePaiement"><rect fill="#F1F1F1" height="96.8906" rx="2.5" ry="2.5" style="stroke:#181818;stroke-width:0.5;" width="132.4746" x="759.5" y="1074"/><ellipse cx="774.5" cy="1090" fill="#EB937F" rx="11" ry="11" style="stroke:#181818;stroke-width:1;"/><path d="M778.6094,1096 L770.8906,1096 L770.8906,1083.6094 L778.6094,1083.6094 L778.6094,1085.7656 L773.3438,1085.7656 L773.3438,1088.4375 L778.1094,1088.4375 L778.1094,1090.5938 L773.3438,1090.5938 L773.3438,1093.8438 L778.6094,1093.8438 L778.6094,1096 Z " fill="#000000"/><text fill="#000000" font-family="sans-serif" font-size="14" lengthAdjust="spacing" textLength="100.4746" x="788.5" y="1094.8467">TypePaiement</text><line style="stroke:#181818;stroke-width:0.5;" x1="760.5" x2="890.9746" y1="1106" y2="1106"/><text fill="#000000" font-family="sans-serif" font-size="14" lengthAdjust="spacing" textLength="62.5283" x="765.5" y="1122.9951">ESPECES</text><text fill="#000000" font-family="sans-serif" font-size="14" lengthAdjust="spacing" textLength="59.2607" x="765.5" y="1139.292">CHEQUE</text><text fill="#000000" font-family="sans-serif" font-size="14" lengthAdjust="spacing" textLength="72.2285" x="765.5" y="1155.5889">VIREMENT</text><line style="stroke:#181818;stroke-width:0.5;" x1="760.5" x2="890.9746" y1="1162.8906" y2="1162.8906"/></g><!--class Utilisateur--><g class="entity" data-entity="Utilisateur" data-source-line="40" data-uid="ent0007" id="entity_Utilisateur"><rect fill="#F1F1F1" height="145.7813" rx="2.5" ry="2.5" style="stroke:#181818;stroke-width:0.5;" width="180.0342" x="85.5" y="7"/><ellipse cx="135.2622" cy="23" fill="#A9DCDF" rx="11" ry="11" style="stroke:#181818;stroke-width:1;"/><path d="M135.3716,18.3438 L134.2153,23.4219 L136.5435,23.4219 L135.3716,18.3438 Z M133.8872,16.1094 L136.8716,16.1094 L140.231,28.5 L137.7778,28.5 L137.0122,25.4375 L133.731,25.4375 L132.981,28.5 L130.5435,28.5 L133.8872,16.1094 Z " fill="#000000"/><text fill="#000000" font-family="sans-serif" font-size="14" font-style="italic" lengthAdjust="spacing" textLength="72.0098" x="155.7622" y="27.8467">Utilisateur</text><line style="stroke:#181818;stroke-width:0.5;" x1="86.5" x2="264.5342" y1="39" y2="39"/><ellipse cx="96.5" cy="52.6484" fill="none" rx="3" ry="3" style="stroke:#038048;stroke-width:1;"/><text fill="#000000" font-family="sans-serif" font-size="14" lengthAdjust="spacing" textLength="56.0684" x="105.5" y="55.9951">id: Long</text><ellipse cx="96.5" cy="68.9453" fill="none" rx="3" ry="3" style="stroke:#038048;stroke-width:1;"/><text fill="#000000" font-family="sans-serif" font-size="14" lengthAdjust="spacing" textLength="154.0342" x="105.5" y="72.292">nomUtilisateur: String</text><ellipse cx="96.5" cy="85.2422" fill="none" rx="3" ry="3" style="stroke:#038048;stroke-width:1;"/><text fill="#000000" font-family="sans-serif" font-size="14" lengthAdjust="spacing" textLength="138.2568" x="105.5" y="88.5889">motDePasse: String</text><ellipse cx="96.5" cy="101.5391" fill="none" rx="3" ry="3" style="stroke:#038048;stroke-width:1;"/><text fill="#000000" font-family="sans-serif" font-size="14" lengthAdjust="spacing" textLength="82.0244" x="105.5" y="104.8857">nom: String</text><ellipse cx="96.5" cy="117.8359" fill="none" rx="3" ry="3" style="stroke:#038048;stroke-width:1;"/><text fill="#000000" font-family="sans-serif" font-size="14" lengthAdjust="spacing" textLength="89.5576" x="105.5" y="121.1826">email: String</text><line style="stroke:#181818;stroke-width:1;" x1="86.5" x2="264.5342" y1="128.4844" y2="128.4844"/><ellipse cx="96.5" cy="142.1328" fill="none" rx="3" ry="3" style="stroke:#038048;stroke-width:1;"/><text fill="#000000" font-family="sans-serif" font-size="14" lengthAdjust="spacing" textLength="98.6973" x="105.5" y="145.4795">role: UserRole</text></g><!--class Admin--><g class="entity" data-entity="Admin" data-source-line="50" data-uid="ent0008" id="entity_Admin"><rect fill="#F1F1F1" height="48" rx="2.5" ry="2.5" style="stroke:#181818;stroke-width:0.5;" width="76.8643" x="137" y="254.5"/><ellipse cx="152" cy="270.5" fill="#ADD1B2" rx="11" ry="11" style="stroke:#181818;stroke-width:1;"/><path d="M154.9688,276.1406 Q154.3906,276.4375 153.75,276.5781 Q153.1094,276.7344 152.4063,276.7344 Q149.9063,276.7344 148.5781,275.0938 Q147.2656,273.4375 147.2656,270.3125 Q147.2656,267.1875 148.5781,265.5313 Q149.9063,263.875 152.4063,263.875 Q153.1094,263.875 153.75,264.0313 Q154.4063,264.1875 154.9688,264.4844 L154.9688,267.2031 Q154.3438,266.625 153.75,266.3594 Q153.1563,266.0781 152.5313,266.0781 Q151.1875,266.0781 150.5,267.1563 Q149.8125,268.2188 149.8125,270.3125 Q149.8125,272.4063 150.5,273.4844 Q151.1875,274.5469 152.5313,274.5469 Q153.1563,274.5469 153.75,274.2813 Q154.3438,274 154.9688,273.4219 L154.9688,276.1406 Z " fill="#000000"/><text fill="#000000" font-family="sans-serif" font-size="14" lengthAdjust="spacing" textLength="44.8643" x="166" y="275.3467">Admin</text><line style="stroke:#181818;stroke-width:0.5;" x1="138" x2="212.8643" y1="286.5" y2="286.5"/><line style="stroke:#181818;stroke-width:0.5;" x1="138" x2="212.8643" y1="294.5" y2="294.5"/></g><!--class Client--><g class="entity" data-entity="Client" data-source-line="53" data-uid="ent0009" id="entity_Client"><rect fill="#F1F1F1" height="129.4844" rx="2.5" ry="2.5" style="stroke:#181818;stroke-width:0.5;" width="285.3486" x="249" y="214"/><ellipse cx="367.1592" cy="230" fill="#ADD1B2" rx="11" ry="11" style="stroke:#181818;stroke-width:1;"/><path d="M370.1279,235.6406 Q369.5498,235.9375 368.9092,236.0781 Q368.2686,236.2344 367.5654,236.2344 Q365.0654,236.2344 363.7373,234.5938 Q362.4248,232.9375 362.4248,229.8125 Q362.4248,226.6875 363.7373,225.0313 Q365.0654,223.375 367.5654,223.375 Q368.2686,223.375 368.9092,223.5313 Q369.5654,223.6875 370.1279,223.9844 L370.1279,226.7031 Q369.5029,226.125 368.9092,225.8594 Q368.3154,225.5781 367.6904,225.5781 Q366.3467,225.5781 365.6592,226.6563 Q364.9717,227.7188 364.9717,229.8125 Q364.9717,231.9063 365.6592,232.9844 Q366.3467,234.0469 367.6904,234.0469 Q368.3154,234.0469 368.9092,233.7813 Q369.5029,233.5 370.1279,232.9219 L370.1279,235.6406 Z " fill="#000000"/><text fill="#000000" font-family="sans-serif" font-size="14" lengthAdjust="spacing" textLength="40.5303" x="387.6592" y="234.8467">Client</text><line style="stroke:#181818;stroke-width:0.5;" x1="250" x2="533.3486" y1="246" y2="246"/><line style="stroke:#181818;stroke-width:1;" x1="250" x2="533.3486" y1="254" y2="254"/><ellipse cx="260" cy="267.6484" fill="none" rx="3" ry="3" style="stroke:#038048;stroke-width:1;"/><text fill="#000000" font-family="sans-serif" font-size="14" lengthAdjust="spacing" textLength="196.8477" x="269" y="270.9951">niveauFidelite: NiveauClient</text><ellipse cx="260" cy="283.9453" fill="none" rx="3" ry="3" style="stroke:#038048;stroke-width:1;"/><text fill="#000000" font-family="sans-serif" font-size="14" lengthAdjust="spacing" textLength="259.3486" x="269" y="287.292">totalCommandesConfirmees: Integer</text><ellipse cx="260" cy="300.2422" fill="none" rx="3" ry="3" style="stroke:#038048;stroke-width:1;"/><text fill="#000000" font-family="sans-serif" font-size="14" lengthAdjust="spacing" textLength="201.8037" x="269" y="303.5889">montantCumule: BigDecimal</text><ellipse cx="260" cy="316.5391" fill="none" rx="3" ry="3" style="stroke:#038048;stroke-width:1;"/><text fill="#000000" font-family="sans-serif" font-size="14" lengthAdjust="spacing" textLength="218.0869" x="269" y="319.8857">datePremiereCommande: Date</text><ellipse cx="260" cy="332.8359" fill="none" rx="3" ry="3" style="stroke:#038048;stroke-width:1;"/><text fill="#000000" font-family="sans-serif" font-size="14" lengthAdjust="spacing" textLength="215.6602" x="269" y="336.1826">dateDerniereCommande: Date</text></g><!--class Produit--><g class="entity" data-entity="Produit" data-source-line="62" data-uid="ent0010" id="entity_Produit"><rect fill="#F1F1F1" height="129.4844" rx="2.5" ry="2.5" style="stroke:#181818;stroke-width:0.5;" width="196.7891" x="355" y="493.5"/><ellipse cx="424.1934" cy="509.5" fill="#ADD1B2" rx="11" ry="11" style="stroke:#181818;stroke-width:1;"/><path d="M427.1621,515.1406 Q426.584,515.4375 425.9434,515.5781 Q425.3027,515.7344 424.5996,515.7344 Q422.0996,515.7344 420.7715,514.0938 Q419.459,512.4375 419.459,509.3125 Q419.459,506.1875 420.7715,504.5313 Q422.0996,502.875 424.5996,502.875 Q425.3027,502.875 425.9434,503.0313 Q426.5996,503.1875 427.1621,503.4844 L427.1621,506.2031 Q426.5371,505.625 425.9434,505.3594 Q425.3496,505.0781 424.7246,505.0781 Q423.3809,505.0781 422.6934,506.1563 Q422.0059,507.2188 422.0059,509.3125 Q422.0059,511.4063 422.6934,512.4844 Q423.3809,513.5469 424.7246,513.5469 Q425.3496,513.5469 425.9434,513.2813 Q426.5371,513 427.1621,512.4219 L427.1621,515.1406 Z " fill="#000000"/><text fill="#000000" font-family="sans-serif" font-size="14" lengthAdjust="spacing" textLength="49.9023" x="444.6934" y="514.3467">Produit</text><line style="stroke:#181818;stroke-width:0.5;" x1="356" x2="550.7891" y1="525.5" y2="525.5"/><ellipse cx="366" cy="539.1484" fill="none" rx="3" ry="3" style="stroke:#038048;stroke-width:1;"/><text fill="#000000" font-family="sans-serif" font-size="14" lengthAdjust="spacing" textLength="56.0684" x="375" y="542.4951">id: Long</text><ellipse cx="366" cy="555.4453" fill="none" rx="3" ry="3" style="stroke:#038048;stroke-width:1;"/><text fill="#000000" font-family="sans-serif" font-size="14" lengthAdjust="spacing" textLength="82.0244" x="375" y="558.792">nom: String</text><ellipse cx="366" cy="571.7422" fill="none" rx="3" ry="3" style="stroke:#038048;stroke-width:1;"/><text fill="#000000" font-family="sans-serif" font-size="14" lengthAdjust="spacing" textLength="170.7891" x="375" y="575.0889">prixUnitaire: BigDecimal</text><ellipse cx="366" cy="588.0391" fill="none" rx="3" ry="3" style="stroke:#038048;stroke-width:1;"/><text fill="#000000" font-family="sans-serif" font-size="14" lengthAdjust="spacing" textLength="170.249" x="375" y="591.3857">stockDisponible: Integer</text><ellipse cx="366" cy="604.3359" fill="none" rx="3" ry="3" style="stroke:#038048;stroke-width:1;"/><text fill="#000000" font-family="sans-serif" font-size="14" lengthAdjust="spacing" textLength="154.6836" x="375" y="607.6826">estSupprime: Boolean</text><line style="stroke:#181818;stroke-width:0.5;" x1="356" x2="550.7891" y1="614.9844" y2="614.9844"/></g><!--class Commande--><g class="entity" data-entity="Commande" data-source-line="70" data-uid="ent0011" id="entity_Commande"><rect fill="#F1F1F1" height="276.1563" rx="2.5" ry="2.5" style="stroke:#181818;stroke-width:0.5;" width="285.123" x="590" y="420"/><ellipse cx="688.0273" cy="436" fill="#ADD1B2" rx="11" ry="11" style="stroke:#181818;stroke-width:1;"/><path d="M690.9961,441.6406 Q690.418,441.9375 689.7773,442.0781 Q689.1367,442.2344 688.4336,442.2344 Q685.9336,442.2344 684.6055,440.5938 Q683.293,438.9375 683.293,435.8125 Q683.293,432.6875 684.6055,431.0313 Q685.9336,429.375 688.4336,429.375 Q689.1367,429.375 689.7773,429.5313 Q690.4336,429.6875 690.9961,429.9844 L690.9961,432.7031 Q690.3711,432.125 689.7773,431.8594 Q689.1836,431.5781 688.5586,431.5781 Q687.2148,431.5781 686.5273,432.6563 Q685.8398,433.7188 685.8398,435.8125 Q685.8398,437.9063 686.5273,438.9844 Q687.2148,440.0469 688.5586,440.0469 Q689.1836,440.0469 689.7773,439.7813 Q690.3711,439.5 690.9961,438.9219 L690.9961,441.6406 Z " fill="#000000"/><text fill="#000000" font-family="sans-serif" font-size="14" lengthAdjust="spacing" textLength="80.5684" x="708.5273" y="440.8467">Commande</text><line style="stroke:#181818;stroke-width:0.5;" x1="591" x2="874.123" y1="452" y2="452"/><ellipse cx="601" cy="465.6484" fill="none" rx="3" ry="3" style="stroke:#038048;stroke-width:1;"/><text fill="#000000" font-family="sans-serif" font-size="14" lengthAdjust="spacing" textLength="56.0684" x="610" y="468.9951">id: Long</text><ellipse cx="601" cy="481.9453" fill="none" rx="3" ry="3" style="stroke:#038048;stroke-width:1;"/><text fill="#000000" font-family="sans-serif" font-size="14" lengthAdjust="spacing" textLength="154.7656" x="610" y="485.292">dateCommande: Date</text><ellipse cx="601" cy="518.5391" fill="none" rx="3" ry="3" style="stroke:#038048;stroke-width:1;"/><text fill="#000000" font-family="sans-serif" font-size="14" lengthAdjust="spacing" textLength="174.8154" x="610" y="521.8857">sousTotalHT: BigDecimal</text><ellipse cx="601" cy="534.8359" fill="none" rx="3" ry="3" style="stroke:#038048;stroke-width:1;"/><text fill="#000000" font-family="sans-serif" font-size="14" lengthAdjust="spacing" textLength="251.2412" x="610" y="538.1826">montantRemiseFidelite: BigDecimal</text><ellipse cx="601" cy="551.1328" fill="none" rx="3" ry="3" style="stroke:#038048;stroke-width:1;"/><text fill="#000000" font-family="sans-serif" font-size="14" lengthAdjust="spacing" textLength="244.8838" x="610" y="554.4795">montantRemisePromo: BigDecimal</text><ellipse cx="601" cy="567.4297" fill="none" rx="3" ry="3" style="stroke:#038048;stroke-width:1;"/><text fill="#000000" font-family="sans-serif" font-size="14" lengthAdjust="spacing" textLength="234.9922" x="610" y="570.7764">montantRemiseTotal: BigDecimal</text><ellipse cx="601" cy="583.7266" fill="none" rx="3" ry="3" style="stroke:#038048;stroke-width:1;"/><text fill="#000000" font-family="sans-serif" font-size="14" lengthAdjust="spacing" textLength="259.123" x="610" y="587.0732">montantHTApresRemise: BigDecimal</text><ellipse cx="601" cy="600.0234" fill="none" rx="3" ry="3" style="stroke:#038048;stroke-width:1;"/><text fill="#000000" font-family="sans-serif" font-size="14" lengthAdjust="spacing" textLength="175.8477" x="610" y="603.3701">montantTVA: BigDecimal</text><ellipse cx="601" cy="616.3203" fill="none" rx="3" ry="3" style="stroke:#038048;stroke-width:1;"/><text fill="#000000" font-family="sans-serif" font-size="14" lengthAdjust="spacing" textLength="147.5264" x="610" y="619.667">totalTTC: BigDecimal</text><line style="stroke:#181818;stroke-width:1;" x1="591" x2="631.5195" y1="500.7422" y2="500.7422"/><text fill="#000000" font-family="sans-serif" font-size="14" lengthAdjust="spacing" textLength="202.084" x="631.5195" y="505.0889">Attributs Financiers (Calculs)</text><line style="stroke:#181818;stroke-width:1;" x1="833.6035" x2="874.123" y1="500.7422" y2="500.7422"/><ellipse cx="601" cy="652.9141" fill="none" rx="3" ry="3" style="stroke:#038048;stroke-width:1;"/><text fill="#000000" font-family="sans-serif" font-size="14" lengthAdjust="spacing" textLength="129.6777" x="610" y="656.2607">codePromo: String</text><ellipse cx="601" cy="669.2109" fill="none" rx="3" ry="3" style="stroke:#038048;stroke-width:1;"/><text fill="#000000" font-family="sans-serif" font-size="14" lengthAdjust="spacing" textLength="173.7559" x="610" y="672.5576">statut: StatutCommande</text><ellipse cx="601" cy="685.5078" fill="none" rx="3" ry="3" style="stroke:#038048;stroke-width:1;"/><text fill="#000000" font-family="sans-serif" font-size="14" lengthAdjust="spacing" textLength="202.207" x="610" y="688.8545">montantRestant: BigDecimal</text><line style="stroke:#181818;stroke-width:1;" x1="591" x2="639.1724" y1="635.1172" y2="635.1172"/><text fill="#000000" font-family="sans-serif" font-size="14" lengthAdjust="spacing" textLength="186.7783" x="639.1724" y="639.4639">Attributs de Statut et Suivi</text><line style="stroke:#181818;stroke-width:1;" x1="825.9507" x2="874.123" y1="635.1172" y2="635.1172"/></g><!--class ArticleCommande--><g class="entity" data-entity="ArticleCommande" data-source-line="87" data-uid="ent0012" id="entity_ArticleCommande"><rect fill="#F1F1F1" height="113.1875" rx="2.5" ry="2.5" style="stroke:#181818;stroke-width:0.5;" width="262.2363" x="320.5" y="836.5"/><ellipse cx="384.6279" cy="852.5" fill="#ADD1B2" rx="11" ry="11" style="stroke:#181818;stroke-width:1;"/><path d="M387.5967,858.1406 Q387.0186,858.4375 386.3779,858.5781 Q385.7373,858.7344 385.0342,858.7344 Q382.5342,858.7344 381.2061,857.0938 Q379.8936,855.4375 379.8936,852.3125 Q379.8936,849.1875 381.2061,847.5313 Q382.5342,845.875 385.0342,845.875 Q385.7373,845.875 386.3779,846.0313 Q387.0342,846.1875 387.5967,846.4844 L387.5967,849.2031 Q386.9717,848.625 386.3779,848.3594 Q385.7842,848.0781 385.1592,848.0781 Q383.8154,848.0781 383.1279,849.1563 Q382.4404,850.2188 382.4404,852.3125 Q382.4404,854.4063 383.1279,855.4844 Q383.8154,856.5469 385.1592,856.5469 Q385.7842,856.5469 386.3779,856.2813 Q386.9717,856 387.5967,855.4219 L387.5967,858.1406 Z " fill="#000000"/><text fill="#000000" font-family="sans-serif" font-size="14" lengthAdjust="spacing" textLength="125.4805" x="405.1279" y="857.3467">ArticleCommande</text><line style="stroke:#181818;stroke-width:0.5;" x1="321.5" x2="581.7363" y1="868.5" y2="868.5"/><ellipse cx="331.5" cy="882.1484" fill="none" rx="3" ry="3" style="stroke:#038048;stroke-width:1;"/><text fill="#000000" font-family="sans-serif" font-size="14" lengthAdjust="spacing" textLength="56.0684" x="340.5" y="885.4951">id: Long</text><ellipse cx="331.5" cy="898.4453" fill="none" rx="3" ry="3" style="stroke:#038048;stroke-width:1;"/><text fill="#000000" font-family="sans-serif" font-size="14" lengthAdjust="spacing" textLength="118.2207" x="340.5" y="901.792">quantite: Integer</text><ellipse cx="331.5" cy="914.7422" fill="none" rx="3" ry="3" style="stroke:#038048;stroke-width:1;"/><text fill="#000000" font-family="sans-serif" font-size="14" lengthAdjust="spacing" textLength="236.2363" x="340.5" y="918.0889">prixUnitaireSnapshot: BigDecimal</text><ellipse cx="331.5" cy="931.0391" fill="none" rx="3" ry="3" style="stroke:#038048;stroke-width:1;"/><text fill="#000000" font-family="sans-serif" font-size="14" lengthAdjust="spacing" textLength="158.71" x="340.5" y="934.3857">totalLigne: BigDecimal</text><line style="stroke:#181818;stroke-width:0.5;" x1="321.5" x2="581.7363" y1="941.6875" y2="941.6875"/></g><!--class Paiement--><g class="entity" data-entity="Paiement" data-source-line="94" data-uid="ent0013" id="entity_Paiement"><rect fill="#F1F1F1" height="239.5625" rx="2.5" ry="2.5" style="stroke:#181818;stroke-width:0.5;" width="244.4209" x="617.5" y="773"/><ellipse cx="702.3916" cy="789" fill="#ADD1B2" rx="11" ry="11" style="stroke:#181818;stroke-width:1;"/><path d="M705.3604,794.6406 Q704.7822,794.9375 704.1416,795.0781 Q703.501,795.2344 702.7979,795.2344 Q700.2979,795.2344 698.9697,793.5938 Q697.6572,791.9375 697.6572,788.8125 Q697.6572,785.6875 698.9697,784.0313 Q700.2979,782.375 702.7979,782.375 Q703.501,782.375 704.1416,782.5313 Q704.7979,782.6875 705.3604,782.9844 L705.3604,785.7031 Q704.7354,785.125 704.1416,784.8594 Q703.5479,784.5781 702.9229,784.5781 Q701.5791,784.5781 700.8916,785.6563 Q700.2041,786.7188 700.2041,788.8125 Q700.2041,790.9063 700.8916,791.9844 Q701.5791,793.0469 702.9229,793.0469 Q703.5479,793.0469 704.1416,792.7813 Q704.7354,792.5 705.3604,791.9219 L705.3604,794.6406 Z " fill="#000000"/><text fill="#000000" font-family="sans-serif" font-size="14" lengthAdjust="spacing" textLength="66.1377" x="722.8916" y="793.8467">Paiement</text><line style="stroke:#181818;stroke-width:0.5;" x1="618.5" x2="860.9209" y1="805" y2="805"/><ellipse cx="628.5" cy="818.6484" fill="none" rx="3" ry="3" style="stroke:#038048;stroke-width:1;"/><text fill="#000000" font-family="sans-serif" font-size="14" lengthAdjust="spacing" textLength="56.0684" x="637.5" y="821.9951">id: Long</text><ellipse cx="628.5" cy="834.9453" fill="none" rx="3" ry="3" style="stroke:#038048;stroke-width:1;"/><text fill="#000000" font-family="sans-serif" font-size="14" lengthAdjust="spacing" textLength="179.9834" x="637.5" y="838.292">numeroPaiement: Integer</text><ellipse cx="628.5" cy="851.2422" fill="none" rx="3" ry="3" style="stroke:#038048;stroke-width:1;"/><text fill="#000000" font-family="sans-serif" font-size="14" lengthAdjust="spacing" textLength="148.1416" x="637.5" y="854.5889">montant: BigDecimal</text><ellipse cx="628.5" cy="867.5391" fill="none" rx="3" ry="3" style="stroke:#038048;stroke-width:1;"/><text fill="#000000" font-family="sans-serif" font-size="14" lengthAdjust="spacing" textLength="207.0537" x="637.5" y="870.8857">typePaiement: TypePaiement</text><ellipse cx="628.5" cy="883.8359" fill="none" rx="3" ry="3" style="stroke:#038048;stroke-width:1;"/><text fill="#000000" font-family="sans-serif" font-size="14" lengthAdjust="spacing" textLength="140.335" x="637.5" y="887.1826">datePaiement: Date</text><ellipse cx="628.5" cy="900.1328" fill="none" rx="3" ry="3" style="stroke:#038048;stroke-width:1;"/><text fill="#000000" font-family="sans-serif" font-size="14" lengthAdjust="spacing" textLength="171.8965" x="637.5" y="903.4795">dateEncaissement: Date</text><ellipse cx="628.5" cy="936.7266" fill="none" rx="3" ry="3" style="stroke:#038048;stroke-width:1;"/><text fill="#000000" font-family="sans-serif" font-size="14" lengthAdjust="spacing" textLength="158.9014" x="637.5" y="940.0732">numeroCheque: String</text><ellipse cx="628.5" cy="953.0234" fill="none" rx="3" ry="3" style="stroke:#038048;stroke-width:1;"/><text fill="#000000" font-family="sans-serif" font-size="14" lengthAdjust="spacing" textLength="135.4541" x="637.5" y="956.3701">nomBanque: String</text><ellipse cx="628.5" cy="969.3203" fill="none" rx="3" ry="3" style="stroke:#038048;stroke-width:1;"/><text fill="#000000" font-family="sans-serif" font-size="14" lengthAdjust="spacing" textLength="141.9893" x="637.5" y="972.667">dateEcheance: Date</text><ellipse cx="628.5" cy="985.6172" fill="none" rx="3" ry="3" style="stroke:#038048;stroke-width:1;"/><text fill="#000000" font-family="sans-serif" font-size="14" lengthAdjust="spacing" textLength="118.4121" x="637.5" y="988.9639">reference: String</text><ellipse cx="628.5" cy="1001.9141" fill="none" rx="3" ry="3" style="stroke:#038048;stroke-width:1;"/><text fill="#000000" font-family="sans-serif" font-size="14" lengthAdjust="spacing" textLength="159.3252" x="637.5" y="1005.2607">statut: StatutPaiement</text><line style="stroke:#181818;stroke-width:1;" x1="618.5" x2="621.5" y1="918.9297" y2="918.9297"/><text fill="#000000" font-family="sans-serif" font-size="14" lengthAdjust="spacing" textLength="236.4209" x="621.5" y="923.2764">Attributs Spécifiques (Optionnels)</text><line style="stroke:#181818;stroke-width:1;" x1="857.9209" x2="860.9209" y1="918.9297" y2="918.9297"/></g><!--reverse link Utilisateur to Admin--><g class="link" data-entity-1="Utilisateur" data-entity-2="Admin" data-source-line="114" data-uid="lnk14" id="link_Utilisateur_Admin"><path codeLine="114" d="M175.5,171.05 C175.5,206.76 175.5,229.45 175.5,254.3" fill="none" id="Utilisateur-backto-Admin" style="stroke:#181818;stroke-width:1;"/><polygon fill="none" points="175.5,153.05,169.5,171.05,181.5,171.05,175.5,153.05" style="stroke:#181818;stroke-width:1;"/></g><!--reverse link Utilisateur to Client--><g class="link" data-entity-1="Utilisateur" data-entity-2="Client" data-source-line="115" data-uid="lnk15" id="link_Utilisateur_Client"><path codeLine="115" d="M268.0151,165.1623 C289.9351,185.1023 300.24,194.48 321.58,213.89" fill="none" id="Utilisateur-backto-Client" style="stroke:#181818;stroke-width:1;"/><polygon fill="none" points="254.7,153.05,263.9776,169.6007,272.0525,160.724,254.7,153.05" style="stroke:#181818;stroke-width:1;"/></g><!--link Client to Commande--><g class="link" data-entity-1="Client" data-entity-2="Commande" data-source-line="118" data-uid="lnk16" id="link_Client_Commande"><path codeLine="118" d="M473.44,343.33 C503.78,367.18 538.37,394.64 569.5,420 C576.09,425.37 582.82,430.88 589.59,436.46" fill="none" id="Client-Commande" style="stroke:#181818;stroke-width:1;"/><text fill="#000000" font-family="sans-serif" font-size="13" lengthAdjust="spacing" textLength="37.7622" x="532.5" y="386.0669">passe</text><text fill="#000000" font-family="sans-serif" font-size="13" lengthAdjust="spacing" textLength="8.271" x="474.4473" y="363.7397">1</text><text fill="#000000" font-family="sans-serif" font-size="13" lengthAdjust="spacing" textLength="6.5" x="575.6209" y="426.4694">*</text></g><!--reverse link Commande to ArticleCommande--><g class="link" data-entity-1="Commande" data-entity-2="ArticleCommande" data-source-line="121" data-uid="lnk17" id="link_Commande_ArticleCommande"><path codeLine="121" d="M608.8415,705.5415 C567.4215,754.6315 530.79,798.03 498.5,836.3" fill="none" id="Commande-backto-ArticleCommande" style="stroke:#181818;stroke-width:1;"/><polygon fill="#181818" points="616.58,696.37,609.6536,698.3762,608.8415,705.5415,615.7679,703.5352,616.58,696.37" style="stroke:#181818;stroke-width:1;"/><text fill="#000000" font-family="sans-serif" font-size="13" lengthAdjust="spacing" textLength="53.3838" x="585.5" y="739.0669">contient</text><text fill="#000000" font-family="sans-serif" font-size="13" lengthAdjust="spacing" textLength="8.271" x="602.0259" y="716.4135">1</text><text fill="#000000" font-family="sans-serif" font-size="13" lengthAdjust="spacing" textLength="6.5" x="497.8786" y="825.5392">*</text></g><!--link Produit to ArticleCommande--><g class="link" data-entity-1="Produit" data-entity-2="ArticleCommande" data-source-line="124" data-uid="lnk18" id="link_Produit_ArticleCommande"><path codeLine="124" d="M453.12,622.81 C452.75,684.66 452.19,777.52 451.83,836.42" fill="none" id="Produit-ArticleCommande" style="stroke:#181818;stroke-width:1;"/><text fill="#000000" font-family="sans-serif" font-size="13" lengthAdjust="spacing" textLength="90.7017" x="453.5" y="739.0669">estInclusDans</text><text fill="#000000" font-family="sans-serif" font-size="13" lengthAdjust="spacing" textLength="8.271" x="444.6414" y="643.2174">1</text><text fill="#000000" font-family="sans-serif" font-size="13" lengthAdjust="spacing" textLength="6.5" x="445.5048" y="825.2731">*</text></g><!--link Commande to Paiement--><g class="link" data-entity-1="Commande" data-entity-2="Paiement" data-source-line="127" data-uid="lnk19" id="link_Commande_Paiement"><path codeLine="127" d="M735.39,696.37 C735.92,721.72 736.47,748 736.99,772.76" fill="none" id="Commande-Paiement" style="stroke:#181818;stroke-width:1;"/><text fill="#000000" font-family="sans-serif" font-size="13" lengthAdjust="spacing" textLength="80.5137" x="737.5" y="739.0669">estPayeePar</text><text fill="#000000" font-family="sans-serif" font-size="13" lengthAdjust="spacing" textLength="8.271" x="727.3333" y="716.4135">1</text><text fill="#000000" font-family="sans-serif" font-size="13" lengthAdjust="spacing" textLength="6.5" x="730.6566" y="762.0601">*</text></g><!--link Utilisateur to UserRole--><g class="link" data-entity-1="Utilisateur" data-entity-2="UserRole" data-source-line="130" data-uid="lnk20" id="link_Utilisateur_UserRole"><path codeLine="130" d="M131.13,153.05 C113.46,181.75 96.9567,208.5613 81.9767,232.8813" fill="none" id="Utilisateur-to-UserRole" style="stroke:#181818;stroke-width:1;"/><polygon fill="#181818" points="78.83,237.99,86.9558,232.4248,81.4522,233.7328,80.1443,228.2292,78.83,237.99" style="stroke:#181818;stroke-width:1;"/></g><!--link Client to NiveauClient--><g class="link" data-entity-1="Client" data-entity-2="NiveauClient" data-source-line="131" data-uid="lnk21" id="link_Client_NiveauClient"><path codeLine="131" d="M361.22,343.16 C338.53,390.85 310.377,450.0416 288.647,495.7316" fill="none" id="Client-to-NiveauClient" style="stroke:#181818;stroke-width:1;"/><polygon fill="#181818" points="286.07,501.15,293.5477,494.7404,288.2175,496.6347,286.3232,491.3044,286.07,501.15" style="stroke:#181818;stroke-width:1;"/></g><!--link Commande to StatutCommande--><g class="link" data-entity-1="Commande" data-entity-2="StatutCommande" data-source-line="132" data-uid="lnk22" id="link_Commande_StatutCommande"><path codeLine="132" d="M832.33,696.37 C868,745.46 902.6829,793.1762 930.4929,831.4462" fill="none" id="Commande-to-StatutCommande" style="stroke:#181818;stroke-width:1;"/><polygon fill="#181818" points="934.02,836.3,931.9651,826.6679,931.0807,832.2552,925.4934,831.3707,934.02,836.3" style="stroke:#181818;stroke-width:1;"/></g><!--link Paiement to TypePaiement--><g class="link" data-entity-1="Paiement" data-entity-2="TypePaiement" data-source-line="133" data-uid="lnk23" id="link_Paiement_TypePaiement"><path codeLine="133" d="M784.51,1013.08 C792.64,1034.58 798.5458,1050.2186 805.3258,1068.1286" fill="none" id="Paiement-to-TypePaiement" style="stroke:#181818;stroke-width:1;"/><polygon fill="#181818" points="807.45,1073.74,808.0046,1063.9068,805.6798,1069.0638,800.5227,1066.7391,807.45,1073.74" style="stroke:#181818;stroke-width:1;"/></g><!--link Paiement to StatutPaiement--><g class="link" data-entity-1="Paiement" data-entity-2="StatutPaiement" data-source-line="134" data-uid="lnk24" id="link_Paiement_StatutPaiement"><path codeLine="134" d="M694.49,1013.08 C686.36,1034.58 680.4542,1050.2186 673.6742,1068.1286" fill="none" id="Paiement-to-StatutPaiement" style="stroke:#181818;stroke-width:1;"/><polygon fill="#181818" points="671.55,1073.74,678.4773,1066.7391,673.3202,1069.0638,670.9954,1063.9068,671.55,1073.74" style="stroke:#181818;stroke-width:1;"/></g><!--SRC=[bLNBRjiu5DtxAuXiKhTmWdQc6w4OG96OMeMZk9QSxO2HRnnY95BbesZGcG_ef-GxycEzb2LPb9DWx0tb- -0zztLuIcR_-pSv9JHTNsLu7k4q0M4hijQWLh84ydD2I1XV9IcUqIAXQJxvhxL9-NTWDYev2DFONOHP4k6P9OiRkiAFpzUB68_b8imJHD9xPeOPQo9PLKniTZ6MD8sJzBEBSfrU9gihwZoZC8teelbSqIyqol7JlsJ9E5GT09h-7UOvOgJDdoXCieoslYZhFFE76do_R4aZchc0S_frxLnkaXMzQhCzFRReUP8__JgsxknM6yKAGugIQKtMXfTSCmDMDHZV4Ru9o4AARVD7o6fW4M0r56zLbJGnvgSrU6BqyFv3nNWva2069rROzQ3llqj_XoVSL5mWabumQ7phAfg1kEGRABd1IuO3qXWOQLZPjLr7KjnnLG7eW2J2m1PKYryO9anaA-kWNF1j30MlMDbeDvZmKa75GK5tLK1YbFRg69HuHjqZNogviToyK5QlIBNYFzQ26yRL8HHjPF5Fp7Kj1RzrK8TPW3QPhT6_SeuIQyd4e7Z3sHzXS2aSP3QRaT0WhbjhDBdaWea2KzJaJSJAmfPwsZL1IwjpL-TvVW2uhUmAgwTXtwVNhB1MbNpTf8dsaiay3si5UcVvab5-4nwecbd9ysYayEg0zTkn0053Cik_ywuAXTnqq0VTr8rnCE8VFoFj3Y_eVWMKuKK9h_NkcqNlfgZ3MHXEKIPOhU-bUJxX1TyAU3wwnrZZiRKLADbPFBjEX_46B1XudBZVirxjxHSL1UD8BvxAQqnMFpqM_8v_iu0ZUbqRBeM0mPJk04VtW1PZbhfWOYnjeXRtk4B5SDaLtE6QDx8NkzmdTJoHhwXxkAxJp6sPsk3IuRuyFRhjnPYriL2MeAT7ylmfUNz6va-F2kTX2-HDXhZneSqPKiXqCgJzJ_-weZhUFHIth8gtVJZhgFYyfvL9ApbvV-8QS_BsPCyu0QdTs-1S_pZRYy-xyNQS8gjQQkwwDftq5kwoj-rjurK8SEDmy5j8Vvxr73kyjai2hpsVSsHFvGPaEkbi1sWFxyV5J4HHMXqpeLsGZnxuhiqOPlzvwTvJDthOj54YRPn-gPe0I_O0EFJANR-2ia6g2RC_2CM1rLuNPhE_zgzaMsudynwzFgJJZ5Yd3-rqtlfv6d-AVmC0]--></g></svg>